# Blender v2.79 (sub 0) OBJ File: 'Top_Hat.blend'
# www.blender.org
mtllib Hat.mtl
o Circle
v -0.897953 2.689754 0.337311
v -1.679243 0.409877 0.337311
v -1.121442 0.415375 0.337311
v -0.644822 0.412807 0.337311
v -0.596611 1.166263 0.337311
v -0.600756 1.645812 0.337311
v -0.641894 1.969508 0.337311
v -0.708037 2.258779 0.337311
v -0.519038 2.258779 -0.368046
v -0.461756 1.969508 -0.334974
v -0.426129 1.645812 -0.314405
v -0.422539 1.166262 -0.312333
v -0.464292 0.412807 -0.336438
v -0.877056 0.415375 -0.574748
v -1.360126 0.409877 -0.853649
v -0.683510 2.689754 -0.463004
v -0.579714 2.484697 -0.403078
v -0.037712 2.484697 -0.945080
v -0.097638 2.689754 -1.048875
v -0.488283 0.409877 -1.725492
v -0.209383 0.415375 -1.242422
v 0.028927 0.412807 -0.829657
v 0.053033 1.166262 -0.787905
v 0.050960 1.645812 -0.791495
v 0.030391 1.969508 -0.827121
v -0.002680 2.258779 -0.884403
v 0.702676 2.258779 -1.073403
v 0.702676 1.969508 -1.007259
v 0.702676 1.645812 -0.966122
v 0.702676 1.166262 -0.961976
v 0.702676 0.412807 -1.010188
v 0.702676 0.415375 -1.486807
v 0.702676 0.409877 -2.044609
v 0.702677 2.689754 -1.263319
v 0.702676 2.484697 -1.143466
v 1.443065 2.484697 -0.945080
v 1.502991 2.689754 -1.048875
v 1.893636 0.409877 -1.725492
v 1.614735 0.415375 -1.242422
v 1.376426 0.412807 -0.829657
v 1.352320 1.166262 -0.787905
v 1.354393 1.645812 -0.791495
v 1.374962 1.969508 -0.827121
v 1.408033 2.258779 -0.884403
v 1.924390 2.258779 -0.368046
v 1.867108 1.969508 -0.334974
v 1.831482 1.645812 -0.314405
v 1.827892 1.166262 -0.312333
v 1.869644 0.412807 -0.336439
v 2.282409 0.415375 -0.574748
v 2.765479 0.409877 -0.853649
v 2.088862 2.689754 -0.463004
v 1.985067 2.484697 -0.403078
v 2.183453 2.484697 0.337311
v 2.303306 2.689754 0.337311
v 3.084596 0.409877 0.337311
v 2.526794 0.415375 0.337311
v 2.050175 0.412807 0.337311
v 2.001964 1.166262 0.337311
v 2.006109 1.645812 0.337311
v 2.047247 1.969508 0.337311
v 2.113390 2.258779 0.337311
v 1.924390 2.258779 1.042668
v 1.867108 1.969508 1.009596
v 1.831482 1.645812 0.989027
v 1.827892 1.166262 0.986954
v 1.869644 0.412807 1.011060
v 2.282409 0.415375 1.249370
v 2.765479 0.409877 1.528270
v 0.702676 2.688401 0.337311
v 2.088862 2.689754 1.137626
v 1.985067 2.484697 1.077699
v 1.443065 2.484697 1.619702
v 1.502991 2.689754 1.723497
v 1.893636 0.409877 2.400114
v 1.614735 0.415375 1.917043
v 1.376426 0.412807 1.504279
v 1.352320 1.166262 1.462526
v 1.354393 1.645812 1.466116
v 1.374961 1.969508 1.501743
v 1.408033 2.258779 1.559025
v 0.702676 2.258779 1.748025
v 0.702676 1.969508 1.681881
v 0.702676 1.645812 1.640743
v 0.702676 1.166262 1.636598
v 0.702676 0.412807 1.684810
v 0.702676 0.415375 2.161429
v 0.702677 0.409877 2.719230
v 0.702676 2.689754 1.937940
v 0.702676 2.484697 1.818088
v -0.037712 2.484697 1.619702
v -0.097638 2.689754 1.723496
v -0.488283 0.409877 2.400114
v -0.209383 0.415375 1.917043
v 0.028927 0.412807 1.504279
v 0.053033 1.166262 1.462526
v 0.050960 1.645812 1.466116
v 0.030391 1.969508 1.501743
v -0.002681 2.258779 1.559025
v -0.519038 2.258779 1.042668
v -0.461755 1.969508 1.009596
v -0.426129 1.645812 0.989027
v -0.422539 1.166262 0.986954
v -0.464292 0.412807 1.011060
v -0.877056 0.415375 1.249370
v -1.360126 0.409877 1.528270
v -0.683509 2.689754 1.137625
v -0.579714 2.484697 1.077699
v -0.778101 2.484697 0.337311
vn -0.9253 -0.2870 -0.2479
vn 0.9432 0.2157 0.2527
vn 0.9587 0.1218 0.2569
vn 0.9659 0.0083 0.2588
vn 0.9641 -0.0617 0.2583
vn -0.0054 -1.0000 -0.0014
vn 0.0099 -0.9999 0.0026
vn -0.0008 -1.0000 -0.0002
vn 0.8411 0.4916 0.2254
vn 0.6158 0.4916 0.6158
vn -0.0006 -1.0000 -0.0006
vn 0.0072 -0.9999 0.0072
vn -0.0039 -1.0000 -0.0039
vn 0.7058 -0.0617 0.7058
vn 0.7071 0.0083 0.7071
vn 0.7018 0.1218 0.7018
vn 0.6905 0.2157 0.6905
vn -0.6774 -0.2870 -0.6774
vn -0.2479 -0.2870 -0.9253
vn 0.2527 0.2157 0.9432
vn 0.2569 0.1218 0.9587
vn 0.2588 0.0083 0.9659
vn 0.2583 -0.0617 0.9641
vn -0.0014 -1.0000 -0.0054
vn 0.0026 -0.9999 0.0099
vn -0.0002 -1.0000 -0.0008
vn 0.2254 0.4916 0.8411
vn -0.2254 0.4916 0.8411
vn 0.0002 -1.0000 -0.0008
vn -0.0026 -0.9999 0.0099
vn 0.0014 -1.0000 -0.0054
vn -0.2583 -0.0617 0.9641
vn -0.2588 0.0083 0.9659
vn -0.2569 0.1218 0.9587
vn -0.2527 0.2157 0.9432
vn 0.2479 -0.2870 -0.9253
vn 0.6774 -0.2870 -0.6774
vn -0.6905 0.2157 0.6905
vn -0.7018 0.1218 0.7018
vn -0.7071 0.0083 0.7071
vn -0.7058 -0.0617 0.7058
vn 0.0039 -1.0000 -0.0039
vn -0.0072 -0.9999 0.0072
vn 0.0006 -1.0000 -0.0006
vn -0.6158 0.4916 0.6158
vn -0.8411 0.4916 0.2254
vn 0.0008 -1.0000 -0.0002
vn -0.0099 -0.9999 0.0026
vn 0.0054 -1.0000 -0.0014
vn -0.9641 -0.0617 0.2583
vn -0.9659 0.0083 0.2588
vn -0.9587 0.1218 0.2569
vn -0.9432 0.2157 0.2527
vn 0.9253 -0.2870 -0.2479
vn 0.9253 -0.2870 0.2479
vn -0.9432 0.2157 -0.2527
vn -0.9587 0.1218 -0.2569
vn -0.9659 0.0083 -0.2588
vn -0.9641 -0.0617 -0.2583
vn 0.0054 -1.0000 0.0014
vn -0.0099 -0.9999 -0.0026
vn 0.0008 -1.0000 0.0002
vn -0.8411 0.4916 -0.2254
vn -0.6158 0.4916 -0.6158
vn 0.0006 -1.0000 0.0006
vn -0.0072 -0.9999 -0.0072
vn 0.0039 -1.0000 0.0039
vn -0.7058 -0.0617 -0.7058
vn -0.7071 0.0083 -0.7071
vn -0.7018 0.1218 -0.7018
vn -0.6905 0.2157 -0.6905
vn 0.6774 -0.2870 0.6774
vn 0.2479 -0.2870 0.9253
vn -0.2527 0.2157 -0.9432
vn -0.2569 0.1218 -0.9587
vn -0.2588 0.0083 -0.9659
vn -0.2583 -0.0617 -0.9641
vn 0.0014 -1.0000 0.0054
vn -0.0026 -0.9999 -0.0099
vn 0.0002 -1.0000 0.0008
vn -0.2254 0.4916 -0.8411
vn 0.2254 0.4916 -0.8411
vn -0.0002 -1.0000 0.0008
vn 0.0026 -0.9999 -0.0099
vn -0.0014 -1.0000 0.0054
vn 0.2583 -0.0617 -0.9641
vn 0.2588 0.0083 -0.9659
vn 0.2569 0.1218 -0.9587
vn 0.2527 0.2157 -0.9432
vn -0.2479 -0.2870 0.9253
vn -0.6774 -0.2870 0.6774
vn 0.6905 0.2157 -0.6905
vn 0.7018 0.1218 -0.7018
vn 0.7071 0.0083 -0.7071
vn 0.7058 -0.0617 -0.7058
vn -0.0039 -1.0000 0.0039
vn 0.0072 -0.9999 -0.0072
vn -0.0006 -1.0000 0.0006
vn 0.6158 0.4916 -0.6158
vn 0.8411 0.4916 -0.2254
vn -0.0008 -1.0000 0.0002
vn 0.0099 -0.9999 -0.0026
vn -0.0054 -1.0000 0.0014
vn 0.9641 -0.0617 -0.2583
vn 0.9659 0.0083 -0.2588
vn 0.9587 0.1218 -0.2569
vn 0.9432 0.2157 -0.2527
vn -0.9253 -0.2870 0.2479
usemtl Material.001
s off
f 8//1 109//1 17//1 9//1
f 8//2 7//2 10//2 9//2
f 7//3 6//3 11//3 10//3
f 6//4 5//4 12//4 11//4
f 5//5 4//5 13//5 12//5
f 4//6 3//6 14//6 13//6
f 3//7 2//7 15//7 14//7
f 70//8 1//8 16//8
f 1//9 109//9 17//9 16//9
f 16//10 17//10 18//10 19//10
f 70//11 16//11 19//11
f 14//12 15//12 20//12 21//12
f 13//13 14//13 21//13 22//13
f 12//14 13//14 22//14 23//14
f 11//15 12//15 23//15 24//15
f 10//16 11//16 24//16 25//16
f 9//17 10//17 25//17 26//17
f 9//18 17//18 18//18 26//18
f 26//19 18//19 35//19 27//19
f 26//20 25//20 28//20 27//20
f 25//21 24//21 29//21 28//21
f 24//22 23//22 30//22 29//22
f 23//23 22//23 31//23 30//23
f 22//24 21//24 32//24 31//24
f 21//25 20//25 33//25 32//25
f 70//26 19//26 34//26
f 19//27 18//27 35//27 34//27
f 34//28 35//28 36//28 37//28
f 70//29 34//29 37//29
f 32//30 33//30 38//30 39//30
f 31//31 32//31 39//31 40//31
f 30//32 31//32 40//32 41//32
f 29//33 30//33 41//33 42//33
f 28//34 29//34 42//34 43//34
f 27//35 28//35 43//35 44//35
f 27//36 35//36 36//36 44//36
f 44//37 36//37 53//37 45//37
f 44//38 43//38 46//38 45//38
f 43//39 42//39 47//39 46//39
f 42//40 41//40 48//40 47//40
f 41//41 40//41 49//41 48//41
f 40//42 39//42 50//42 49//42
f 39//43 38//43 51//43 50//43
f 70//44 37//44 52//44
f 37//45 36//45 53//45 52//45
f 52//46 53//46 54//46 55//46
f 70//47 52//47 55//47
f 50//48 51//48 56//48 57//48
f 49//49 50//49 57//49 58//49
f 48//50 49//50 58//50 59//50
f 47//51 48//51 59//51 60//51
f 46//52 47//52 60//52 61//52
f 45//53 46//53 61//53 62//53
f 45//54 53//54 54//54 62//54
f 62//55 54//55 72//55 63//55
f 62//56 61//56 64//56 63//56
f 61//57 60//57 65//57 64//57
f 60//58 59//58 66//58 65//58
f 59//59 58//59 67//59 66//59
f 58//60 57//60 68//60 67//60
f 57//61 56//61 69//61 68//61
f 70//62 55//62 71//62
f 55//63 54//63 72//63 71//63
f 71//64 72//64 73//64 74//64
f 70//65 71//65 74//65
f 68//66 69//66 75//66 76//66
f 67//67 68//67 76//67 77//67
f 66//68 67//68 77//68 78//68
f 65//69 66//69 78//69 79//69
f 64//70 65//70 79//70 80//70
f 63//71 64//71 80//71 81//71
f 63//72 72//72 73//72 81//72
f 81//73 73//73 90//73 82//73
f 81//74 80//74 83//74 82//74
f 80//75 79//75 84//75 83//75
f 79//76 78//76 85//76 84//76
f 78//77 77//77 86//77 85//77
f 77//78 76//78 87//78 86//78
f 76//79 75//79 88//79 87//79
f 70//80 74//80 89//80
f 74//81 73//81 90//81 89//81
f 89//82 90//82 91//82 92//82
f 70//83 89//83 92//83
f 87//84 88//84 93//84 94//84
f 86//85 87//85 94//85 95//85
f 85//86 86//86 95//86 96//86
f 84//87 85//87 96//87 97//87
f 83//88 84//88 97//88 98//88
f 82//89 83//89 98//89 99//89
f 82//90 90//90 91//90 99//90
f 99//91 91//91 108//91 100//91
f 99//92 98//92 101//92 100//92
f 98//93 97//93 102//93 101//93
f 97//94 96//94 103//94 102//94
f 96//95 95//95 104//95 103//95
f 95//96 94//96 105//96 104//96
f 94//97 93//97 106//97 105//97
f 70//98 92//98 107//98
f 92//99 91//99 108//99 107//99
f 109//100 1//100 107//100 108//100
f 107//101 1//101 70//101
f 105//102 106//102 2//102 3//102
f 104//103 105//103 3//103 4//103
f 103//104 104//104 4//104 5//104
f 102//105 103//105 5//105 6//105
f 101//106 102//106 6//106 7//106
f 100//107 101//107 7//107 8//107
f 100//108 108//108 109//108 8//108
